# xmcd
#
# Track frame offsets:
#	183
#	22106
#	36592
#	59919
#	91886
#	107656
#	129181
#	146659
#	165857
#	195303
#
# Disc length: 4440 seconds
#
# Revision: 1
# Processed by: cddbd v1.5.2PL0 Copyright (c) Steve Scherf et al.
# Submitted via: audiograbber 1.83.01
#
DISCID=8511560a
DTITLE=Sun - Wanna Make Love
DYEAR=1900
DGENRE=
TTITLE0=Live On Dream On
TTITLE1=Tell The People
TTITLE2=My Woman
TTITLE3=They're Calling For More
TTITLE4=Wanna Make Love
TTITLE5=Love Is Never Sure
TTITLE6=The Show Is Over
TTITLE7=It's Killing Me
TTITLE8=Give Your Love To Me
TTITLE9=Data Track
EXTD=
EXTT0=
EXTT1=
EXTT2=
EXTT3=
EXTT4=
EXTT5=
EXTT6=
EXTT7=
EXTT8=
EXTT9=
PLAYORDER=
